<?xml version="1.0" encoding="iso-8859-1"?>
<!-- Uploaded to: SVG Repo, www.svgrepo.com, Generator: SVG Repo Mixer Tools -->
<svg version="1.1" id="Layer_1" xmlns="http://www.w3.org/2000/svg" xmlns:xlink="http://www.w3.org/1999/xlink" 
	 viewBox="0 0 512 512" xml:space="preserve">
<rect x="12.8" y="128" style="fill:#BFA779;" width="384" height="320"/>
<path style="fill:#FF877F;" d="M318.396,347.844c-5.999-7.313-10.965-15.206-14.754-23.458l-4.881-10.641l175.232-100.13
	l25.216,7.091v36.087L325.248,356.19L318.396,347.844z"/>
<g>
	<path style="fill:#A0BF7C;" d="M393.233,396.288c-1.143-0.333-28.092-8.303-53.513-27.998l-15.13-11.733L499.2,256.785V281.6
		c0,85.478-94.848,113.553-98.884,114.705l-3.541,1.007L393.233,396.288z"/>
	<path style="fill:#A0BF7C;" d="M295.39,295.322c-0.674-5.171-0.99-9.54-0.99-13.722v-60.894l102.4-28.834l77.184,21.734
		L297.865,314.249L295.39,295.322z"/>
</g>
<rect x="166.4" y="128" style="fill:#7F6F51;" width="76.8" height="166.4"/>
<polygon style="fill:#FEDEA1;" points="315.733,64 93.867,64 12.8,128 396.8,128 "/>
<rect x="166.4" y="64" style="fill:#BFA779;" width="76.8" height="64"/>
<path style="fill:#573A32;" d="M493.338,205.756L409.6,182.187V128c0-8.559-4.275-16.555-11.401-21.299l-76.8-51.2
	c-4.207-2.807-9.148-4.301-14.199-4.301H102.4c-5.052,0-9.993,1.493-14.199,4.301l-76.8,51.2C4.275,111.445,0,119.441,0,128v307.2
	c0,14.14,11.46,25.6,25.6,25.6H384c14.14,0,25.6-11.46,25.6-25.6v-28.459C432.196,398.822,512,364.937,512,281.6v-51.2
	C512,218.931,504.371,208.862,493.338,205.756z M441.105,217.651l-133.026,76.015c-0.503-3.891-0.879-7.868-0.879-12.066
	c0-25.6,0-51.2,0-51.2l89.6-25.225L441.105,217.651z M256,76.8h51.2l57.6,38.4H256V76.8z M179.2,76.8h51.2v38.4h-51.2V76.8z
	 M179.2,140.8h51.2v140.8h-51.2V140.8z M102.4,76.8h51.2v38.4H44.8L102.4,76.8z M384,435.2H25.6V140.8h128v166.4H256V140.8h128
	v41.387l-83.738,23.569c-11.034,3.106-18.662,13.175-18.662,24.644v51.2c0,83.337,79.804,117.222,102.4,125.141V435.2z M486.4,281.6
	c0,76.8-89.6,102.4-89.6,102.4s-25.455-7.39-49.237-25.822L486.4,278.844C486.4,279.765,486.4,280.678,486.4,281.6z M486.4,249.361
	l-158.123,90.351c-5.043-6.135-9.498-13.013-13.013-20.668l160.41-91.665L486.4,230.4C486.4,230.4,486.4,238.208,486.4,249.361z"/>
</svg>