<svg width="256px" height="256px" viewBox="-204.8 -204.8 1433.60 1433.60" class="icon" version="1.1" xmlns="http://www.w3.org/2000/svg" fill="#e9b9b9" stroke="#e9b9b9" stroke-width="10.24"><g id="SVGRepo_bgCarrier" stroke-width="0"><rect x="-204.8" y="-204.8" width="1433.60" height="1433.60" rx="716.8" fill="#51c1e6" strokewidth="0"></rect></g><g id="SVGRepo_tracerCarrier" stroke-linecap="round" stroke-linejoin="round"></g><g id="SVGRepo_iconCarrier"><path d="M173.248 113.344H860.16v736.832H173.248z" fill="#D3552F"></path><path d="M173.248 113.344H860.16v132.672H173.248z" fill="#9D2524"></path><path d="M212.48 308.864h608.384v230.72H212.48z" fill="#4E6874"></path><path d="M215.168 850.112h99.776v73.856H215.168zM721.152 850.112h99.776v73.856h-99.776zM860.16 617.28h39.296v44.288h-39.296z" fill="#425760"></path><path d="M889.024 489.28h76.096v183.552h-76.096z" fill="#D3552F"></path><path d="M133.888 617.28h39.36v44.288h-39.36z" fill="#425760"></path><path d="M68.288 489.28h76.032v183.552H68.288z" fill="#D3552F"></path><path d="M368.768 589.44h304.192v207.104H368.768z" fill="#4E6874"></path><path d="M368.768 636.032h304.192v36.288H368.768zM368.768 715.52h304.192v36.352H368.768z" fill="#6D858E"></path><path d="M238.72 661.568h68.352v68.352H238.72zM736.768 661.568h68.352v68.352h-68.352z" fill="#FFFFFF"></path></g></svg>